<svg xml:space="preserve" viewBox="0 0 100 100" y="0" x="0" xmlns="http://www.w3.org/2000/svg" id="Layer_1" version="1.1" style="height: 100%; width: 100%; background: rgb(241, 242, 243);" width="200px" height="200px"><g class="ldl-scale" style="transform-origin: 50% 50%; transform: rotate(0deg) scale(0.8, 0.8);"><g class="ldl-ani"><g class="ldl-layer"><g class="ldl-ani"><g><g class="ldl-layer"><g class="ldl-ani" style="transform: scale(0.91); transform-origin: 50px 50px; animation: 1.11111s linear -0.740741s infinite normal forwards running breath-3ea20ce9-5b64-49e8-bce4-e0fa16440679;"><path fill="#666766" d="M83.8 31.2H16.2c-3.5 0-6.2-2.8-6.2-6.2s2.8-6.2 6.2-6.2h67.5c3.5 0 6.2 2.8 6.2 6.2s-2.7 6.2-6.1 6.2z" style="fill: rgb(255, 255, 255);"></path></g></g></g></g></g><g class="ldl-layer"><g class="ldl-ani"><g><g class="ldl-layer"><g class="ldl-ani" style="transform: scale(0.91); transform-origin: 50px 50px; animation: 1.11111s linear -0.925926s infinite normal forwards running breath-3ea20ce9-5b64-49e8-bce4-e0fa16440679;"><path fill="#666766" d="M83.8 56.2H16.2c-3.5 0-6.2-2.8-6.2-6.2s2.8-6.2 6.2-6.2h67.5c3.5 0 6.2 2.8 6.2 6.2s-2.7 6.2-6.1 6.2z" style="fill: rgb(255, 255, 255);"></path></g></g></g></g></g><g class="ldl-layer"><g class="ldl-ani"><g><g class="ldl-layer"><g class="ldl-ani" style="transform: scale(0.91); transform-origin: 50px 50px; animation: 1.11111s linear -1.11111s infinite normal forwards running breath-3ea20ce9-5b64-49e8-bce4-e0fa16440679;"><path fill="#666766" d="M83.8 81.2H16.2c-3.5 0-6.2-2.8-6.2-6.2s2.8-6.2 6.2-6.2h67.5c3.5 0 6.2 2.8 6.2 6.2s-2.7 6.2-6.1 6.2z" style="fill: rgb(255, 255, 255);"></path></g></g></g></g></g><metadata xmlns:d="https://loading.io/stock/"><d:name>menu</d:name><d:tags>hamburger,dropdown,responsive,mobile,info,navbar,navigation,tab,menu,web application</d:tags><d:license>free</d:license><d:slug>hs2nrd</d:slug></metadata></g></g></svg>