<svg xml:space="preserve" viewBox="0 0 100 100" y="0" x="0" xmlns="http://www.w3.org/2000/svg" id="圖層_1" version="1.1" style="height: 100%; width: 100%; background: rgb(255, 255, 255);" width="200px" height="200px"><g class="ldl-scale" style="transform-origin: 50% 50%; transform: rotate(0deg) scale(0.8, 0.8);"><g class="ldl-ani"><g class="ldl-layer"><g class="ldl-ani" style="transform: scale(0.91); transform-origin: 50px 50px; animation: 1.11111s linear -1.11111s infinite normal forwards running breath-bfb505fc-46d6-473f-9b3b-1d1372ac10a9;"><path fill="#e15b64" d="M65.569 19.949L50 35.518 34.431 19.949c-3.993-3.993-10.49-3.993-14.483 0s-3.993 10.49 0 14.483l15.569 15.569L19.948 65.57c-3.993 3.993-3.993 10.49 0 14.483 3.993 3.993 10.49 3.993 14.483 0L50 64.484l15.569 15.569c3.993 3.993 10.49 3.993 14.483 0s3.993-10.49 0-14.483L64.483 50.001l15.569-15.569c3.993-3.993 3.993-10.49 0-14.483-3.993-3.993-10.49-3.993-14.483 0z" style="fill: rgb(225, 91, 100);"></path></g></g><metadata xmlns:d="https://loading.io/stock/"><d:name>cross</d:name><d:tags>times,delete,remove,clear,error,forbid,deny,negative,drop,refuse,reject,cross,form</d:tags><d:license>free</d:license><d:slug>hevw6u</d:slug></metadata></g></g></svg>